<?xml version="1.0" encoding="UTF-8"?>
<svg id="Layer_1" xmlns="http://www.w3.org/2000/svg" viewBox="0 0 894 302">
  <defs>
    <style>
      .cls-1 {
        fill: #fff;
      }
    </style>
  </defs>
  <g id="texto_2">
    <g>
      <path class="cls-1" d="M150.17,38.64c17.43,4.23,34.86,8.45,52.28,12.71,5.34,1.31,10.58,3.24,15.98,4.04,13.78,2.04,26.35.23,34.43-14.28,5.92,8.75,8.15,17.33,6.23,26.52-2.07,9.87-9.98,14.63-17.8,17.76,3.91,6.02,7.46,11.61,11.17,17.09.62.91,1.88,1.45,2.93,1.98.52.26,1.25.09,1.88.12q17.83,1.01,20.88,17.93c4.86.85,10.87.23,10.41,8.41-.4,7.14-5.58,6.15-10.68,6.71-.15,2.37-.41,4.59-.42,6.8-.03,13.55.06,27.11-.03,40.66-.06,8.43-3.15,11.55-11.47,11.81-4.42.13-8.86.02-14.4.02,0,4.23.05,7.95,0,11.66-.38,23.23-17.67,41.35-40.88,41.62-35.36.41-70.73.43-106.09-.02-23.28-.3-40.41-18.38-40.75-41.7-.05-3.55,0-7.09,0-11.15-3-.16-5.27-.33-7.53-.38-9.7-.24-12.76-3.31-12.81-13.2-.06-12.92-.01-25.83-.01-38.75,0-2.28,0-4.56,0-6.5-4.36-1.25-7.93-2.27-11.5-3.29,0-3.39,0-6.78,0-10.17,3.6-.98,7.2-1.96,11.41-3.11-1.38-11.65,2.59-18.92,16-17.67.77.07,2.59-2.61,2.58-4-.26-23.44,21.95-53.01,51.14-59.46,2.64-.58,5.22-1.44,7.82-2.17,9.74,0,19.48,0,29.23,0ZM94.71,119.4c-9.52,0-19.03.11-28.55-.04-5.28-.09-7.89,2.15-7.88,7.49.02,15.86.03,31.72-.04,47.58-.02,5.25,2.42,7.83,7.68,7.82,19.03-.02,38.07-.03,57.1-.02,5.3,0,7.61-2.63,7.58-7.89-.08-15.65-.08-31.3.01-46.95.03-5.53-2.28-8.15-7.99-8.04-9.3.19-18.61.05-27.91.05ZM226.78,182.25c9.31,0,18.62-.1,27.92.04,5.6.09,8.13-2.36,8.09-7.98-.1-15.65-.13-31.31-.02-46.96.04-5.59-2.27-8.04-7.98-8-18.61.15-37.23.17-55.85,0-5.92-.06-8.45,2.24-8.37,8.24.18,15.44.18,30.89,0,46.33-.07,5.9,2.3,8.52,8.27,8.4,9.3-.19,18.61-.05,27.92-.06Z"/>
      <path class="cls-1" d="M873.2,147.92c-10.69,22.62-37.81,29.28-58.51,14.37-2.46-1.77-5.06-3.31-2.48-7.04,2.37-3.43,4.43-7.08,9.5-4.79,1.92.87,3.63,2.17,5.48,3.17,6.43,3.47,13.2,4.41,20.26,2.43,5.36-1.5,8.85-4.9,9.55-10.6.73-5.91-2.97-9.11-7.7-11.04-6.25-2.55-12.76-4.47-19.1-6.82-11.81-4.38-17.54-11.77-17.47-22.26.08-10.51,7.05-20,18.19-23.47,14.95-4.66,28.66-2.22,40.68,8.04-3.83,9.58-5.05,9.49-13.64,6.59-6.14-2.07-13.06-2.6-19.59-2.43-4.9.13-8.5,3.94-9.23,9.1-.76,5.39,3.14,8.13,7.32,9.92,5.42,2.32,11.02,4.32,16.68,6.01,8.94,2.68,15.89,7.63,20.07,16.13v12.71Z"/>
      <path class="cls-1" d="M714.36,263.56c.01-.42-.14-.96.06-1.24,6.86-9.38,4.23-18.31-.62-27.62-4.17-8-7.35-16.5-11.01-24.89,9.73-2.32,10.89-1.78,14.21,6.13,2.67,6.37,5.31,12.76,8.7,20.9,3.18-8.05,6.11-14.26,8.09-20.77,2.04-6.71,5.96-8.68,13.41-6.54-7.59,18.08-15.13,36.05-22.67,54.03h-10.17Z"/>
      <path class="cls-1" d="M493.22,108.79h38.14c0,7.2,0,14.31,0,21.41,0,7.2.22,14.4-.14,21.58-.11,2.19-1.22,5.14-2.88,6.33-18.67,13.38-62.1,19.73-86.23-4.47-18.69-18.75-22.25-41.77-15.86-66.43,5.98-23.07,21.68-37.04,44.91-41.46,19.25-3.66,37.96-1.88,54.46,10.37,3.22,2.39,5.3,4.4,2.22,8.63-2.92,4.01-5.2,7.8-11.12,4.84-5.64-2.82-11.29-5.98-17.31-7.58-10.84-2.88-21.85-2.48-32.37,1.96-14.73,6.21-21.82,18.27-24.15,33.33-1.67,10.77-.98,21.55,3.28,31.82,7.82,18.86,25.25,27.87,48.4,25.06,18.98-2.31,24.11-9.61,19.63-28.35-.29-1.23-2.4-2.65-3.83-2.85-3.11-.44-6.33-.12-9.5-.15-8.71-.1-10.29-2.89-7.65-14.03Z"/>
      <path class="cls-1" d="M396.56,122.81c4.61,0,8.41.18,12.18-.05,3.95-.24,5.95.97,5.74,5.3-.2,4.13.27,8.47-5.66,8.66-3.96.13-7.92.02-12.62.02,0,9.16-.33,17.38.11,25.57.32,5.97-2.76,6.48-7.39,6.32-4.41-.16-8.58.41-8.12-6.31.45-6.53-.18-13.13.17-19.67.26-4.87-1.64-6.13-6.26-6.05-14.18.25-28.37.28-42.54-.07-2.99-.07-7.33-1.29-8.59-3.43-2.23-3.79-2.94-8.23.62-12.86,17.83-23.13,35.24-46.57,52.83-69.88,3.34-4.42,12.19-7.1,16.85-4.55,1.41.77,2.21,3.8,2.22,5.8.16,21.38.09,42.76.12,64.13,0,2.07.2,4.14.35,7.08ZM380.53,70.81c-.39-.25-.79-.5-1.18-.74-12.62,17.19-25.25,34.39-38.4,52.3h39.58v-51.56Z"/>
      <path class="cls-1" d="M803.12,81.58c-12.53,13.39-24.04,25.68-35.93,38.38,12.47,15.8,24.71,31.3,37.06,46.96-9.87,3.95-17.51,2.11-23.41-5.23-7.95-9.89-15.71-19.94-23.95-29.59-2.1-2.46-5.67-3.65-8.56-5.43-.59.52-1.18,1.04-1.77,1.55,0,10.94.13,21.88-.1,32.82-.05,2.43-1.13,6.77-2.16,6.9-4.47.57-9.12.06-13.64-.53-.53-.07-.97-3.01-.97-4.62-.05-38.29.01-76.58-.1-114.86-.01-4.3,1.25-6.4,5.77-5.91,1.67.18,3.4.19,5.07,0,4.68-.52,6.24,1.42,6.19,6.13-.2,19.88-.15,39.77.02,59.65.02,2.41,1.33,4.81,2.04,7.21,2.48-1.28,5.48-2.05,7.35-3.93,7.59-7.66,15.29-15.29,22.06-23.66,6.77-8.37,15.02-6.39,25.03-5.84Z"/>
      <path class="cls-1" d="M652.56,126.2c-2.32,19.24,12.43,32.88,31.12,28.96,5.07-1.06,9.97-3.46,14.6-5.91,5-2.64,7.73-.64,10.57,3.29,3.29,4.56-.65,6.26-3.11,7.95-14.67,10.07-30.62,12.22-47.06,5.47-16.17-6.63-22.36-20.6-23.9-36.88-2.14-22.58,7.91-40.43,25.77-46.89,26.83-9.7,51.22,7.24,51.36,35.52.03,5.86-2,8.4-8.18,8.27-14.82-.31-29.65-.12-44.47-.09-2.27,0-4.53.21-6.7.32ZM652.65,114.1h43.13c.36-11.87-6.73-20.23-17.6-21.21-13.86-1.25-23.64,6.63-25.53,21.21Z"/>
      <path class="cls-1" d="M563.65,125.87c-1.29,20.2,13.08,33.22,31.65,29.25,5.06-1.08,9.64-4.26,14.67-5.65,2.55-.71,6.25-.53,8.31.88,4.37,2.99,4.33,6.63-.49,9.91-14.7,10.03-30.48,12.41-47.02,5.95-15.47-6.05-22.1-18.94-24.08-34.58-2.13-16.86.8-32.44,14.91-43.47,12.92-10.1,27.73-11.51,42.48-4.53,14.25,6.75,18.78,19.76,19.38,34.6.23,5.75-2.44,7.8-8.09,7.71-14.81-.23-29.63-.07-44.44-.07-2.29,0-4.58,0-7.27,0ZM564.58,113.84h42.69c1.12-10.11-6.96-21.08-19.47-21.08-13.37,0-22.55,7.94-23.21,21.08Z"/>
      <path class="cls-1" d="M646.92,252.58q-10.01,1.37-10.02-7.99c0-9.1-.14-18.2.07-27.29.06-2.76.68-7.68,1.69-7.85,3-.51,6.32.84,10.96,1.75,9.02-4.87,12.4-4.51,20.33,3.4,1.21-1.05,2.39-2.19,3.69-3.16,10.38-7.72,23.95-2.2,25.08,10.61.78,8.82.5,17.76.32,26.64-.15,7.73-6,3.3-10.68,4.84,0-7.42.02-14.07,0-20.72-.01-2.96.13-5.95-.22-8.87-.49-4.12-2.27-7.41-7.15-7.25-4.64.14-7.03,3.12-7.23,7.33-.37,7.81-.42,15.65-.2,23.47.12,4.45-1.46,5.88-5.88,5.8-3.96-.08-5.19-1.55-5.13-5.27.13-7.61.06-15.23-.05-22.85-.07-4.67-1.43-8.74-7.11-8.4-5.18.31-7.84,3.26-7.74,8.79.16,8.46-.06,16.92-.15,25.38,0,.39-.27.78-.58,1.64Z"/>
      <path class="cls-1" d="M449.71,252.4c-10.08,1.84-11.15,1.49-14.1-7.64-1.7-5.26-4.41-7.82-10.03-6.97-1.65.25-3.4.23-5.06,0-8.93-1.28-15.27.53-17.44,10.94-1.38,6.65-7.47,4.23-12.96,3.96,1.36-3.81,2.47-7.13,3.74-10.39,6.12-15.73,12.4-31.4,18.37-47.2,1.42-3.77,3.77-4.54,7.28-4.32,3.29.21,6.58-.64,8.26,3.8,7.03,18.55,14.35,36.99,21.53,55.48.28.73.29,1.56.42,2.35ZM410.7,228.76h18.88c-3.12-8.45-5.97-16.15-8.81-23.85-.48.05-.96.11-1.44.16-2.83,7.78-5.67,15.56-8.63,23.69Z"/>
      <path class="cls-1" d="M569.23,210.57v-20.54c9.97-2.1,10.58-1.64,10.59,7.39,0,16.07.12,32.14-.11,48.2-.04,2.5-1.53,6.99-2.59,7.06-2.75.19-5.64-1.57-8.47-2.55l.25-1.69c-1.56.98-3.09,2.01-4.69,2.92-8.41,4.82-17.93,2.29-22.14-6.35-4.42-9.07-4.43-18.47.3-27.46,4.85-9.22,12.04-11.08,26.87-6.99ZM569.07,229.95c0-1.47-.18-2.97.03-4.42,1.1-7.75-5.43-9.68-10.39-8.91-5.01.78-8.01,5.31-8.33,12.48-.46,10.34,2.26,15.5,8.38,15.83,7.3.4,10.31-3.98,10.32-14.99Z"/>
      <path class="cls-1" d="M599.84,232.5c-1.12,10.77,8.59,14.29,15.46,12.05,2-.65,3.9-2.33,5.82-2.29,1.91.04,4.05,1.37,5.51,2.75.42.4-.75,3.46-1.91,4.39-11.85,9.5-30.83,3.7-35.41-10.7-5.44-17.1,5.73-31.93,22.8-30.27,10.09.98,17.13,9.75,16.33,19.85-.32,4-2.73,4.21-5.64,4.21-7.56,0-15.12,0-22.96,0ZM599.75,224.95h18.9c-1.07-6.16-4.08-8.89-9.58-8.75-5.41.14-8.41,2.85-9.31,8.75Z"/>
      <path class="cls-1" d="M531.23,254.21c-3.98-1.74-7.04-3.08-8.91-3.9-6.08,1.13-11.49,2.73-16.97,2.97-5.12.23-8.64-3.08-10.02-8.13-1.39-5.09.12-9.74,4.6-12.06,4.76-2.46,10.22-3.61,15.42-5.16,2.34-.7,6.09.93,5.74-3.72-.29-3.92-1.78-7.35-6.22-7.38-2.82-.02-5.8.93-8.42,2.08-3.24,1.43-6.6,2.47-7.82-1.54-.46-1.54,2.23-5.45,4.15-6.02,5.32-1.58,11.05-2.9,16.51-2.58,6.48.38,11.28,5.01,11.72,11.47.73,10.66.2,21.41.2,33.97ZM520.3,233.87c-4.21,1.02-8.2,1.49-11.7,3.06-1.49.67-2.77,3.71-2.59,5.52.13,1.31,2.68,3.1,4.39,3.42,6.9,1.28,11.3-3.51,9.91-12Z"/>
      <path class="cls-1" d="M475.14,207.53c3.72,1.29,7.6,2.26,11.08,4.03,1.27.65,1.59,3.18,2.34,4.85-1.91.77-4.29,2.68-5.65,2.11-5.21-2.16-10.31-3.63-14.73.78-4.86,4.85-4.54,11.24-3.15,17.33,1.79,7.83,8.3,10.65,15.62,7.22.76-.36,1.55-1.27,2.2-1.16,2,.33,3.95,1.02,5.91,1.57-.5,1.75-.45,4.12-1.59,5.15-5.52,4.95-17.45,5.59-23.95,1.66-8.22-4.96-12.08-16.75-9.05-27.61,2.77-9.94,9.94-15.17,20.98-15.93Z"/>
    </g>
  </g>
</svg>