<?xml version="1.0" encoding="UTF-8"?>
<svg id="Layer_1" xmlns="http://www.w3.org/2000/svg" viewBox="0 0 746.5 200">
  <defs>
    <style>
      .cls-1 {
        fill: #fff;
      }
    </style>
  </defs>
  <path class="cls-1" d="M298.42,142.68c-2.07-.37-4.16-.63-6.19-1.12-15.37-3.7-25.35-18.33-23.8-34.08,1.47-14.88,14.44-26.87,29.06-27.96,12.36-.92,22.46,3.18,30.06,13.04,8.79,11.42,8.99,32.35-7.13,43.94-4.75,3.42-10.04,5.4-15.87,5.93-.36.03-.71.17-1.06.26h-5.07ZM319.35,110.94c.07-10.43-7.93-18.62-18.26-18.69-10.53-.07-18.61,7.87-18.68,18.36-.07,10.88,7.63,19.01,18.08,19.08,10.89.07,18.79-7.78,18.86-18.75Z"/>
  <path class="cls-1" d="M502.36,142.68c-2.07-.37-4.16-.62-6.2-1.11-15.63-3.78-25.64-18.66-23.79-34.63,1.66-14.4,14.41-26.36,29-27.42,12.83-.93,23.21,3.45,30.71,13.99,8.1,11.39,7.95,31.44-7.49,42.77-4.89,3.59-10.33,5.64-16.36,6.16-.36.03-.72.16-1.08.24h-4.79ZM523.22,110.94c-.01-10.65-8.03-18.72-18.55-18.68-10.58.03-18.42,8.04-18.39,18.79.03,10.85,7.84,18.67,18.63,18.65,10.39-.02,18.32-8.14,18.31-18.76Z"/>
  <path class="cls-1" d="M595.88,57.32c1.37.76,2.93,1.31,4.07,2.32,2.94,2.62,3.51,6.72,1.65,10.14-1.82,3.35-5.62,5.01-9.46,4.13-3.56-.82-6.28-4.05-6.41-7.63-.15-4.1,2.08-7.33,5.91-8.58.3-.1.58-.25.87-.38,1.13,0,2.25,0,3.38,0Z"/>
  <path class="cls-1" d="M212.96,133.12v7.63h-14.11V58.32c.5-.02,1-.06,1.5-.06,3.61,0,7.23.06,10.84-.03,1.38-.04,1.83.27,1.82,1.76-.08,9.1-.04,18.21-.04,27.31v1.53c.16.01.3.05.31.02,2.88-5.32,7.75-7.61,13.36-8.52,9.39-1.53,17.88.45,25.05,7.02,6.79,6.21,10.08,13.94,10.17,23.1.11,11.78-4.42,21.29-14.52,27.5-8.71,5.36-18.07,5.73-27.46,1.54-2.94-1.31-5.18-3.49-6.94-6.37ZM247.8,111.08c.11-10.34-7.3-18.2-17.27-18.31-10.61-.12-18.51,7.52-18.61,17.97-.09,10.44,7.52,18.31,17.84,18.46,10.38.14,17.92-7.43,18.03-18.12Z"/>
  <path class="cls-1" d="M381.38,91.43c4.05-5.72,9.26-9.6,15.97-11.18,7.38-1.73,14.74-1.57,21.79,1.5,6.85,2.98,10.63,8.36,10.73,15.79.2,14.55.06,29.1.05,43.65,0,.18-.05.36-.08.61h-10.87v-5.97c-2.48,1.51-4.76,3.45-7.4,4.41-8.58,3.13-17.28,3.53-25.67-.66-6.05-3.02-9.13-8.16-9.26-14.96-.13-7.01,2.58-12.47,8.91-15.87,4.72-2.54,9.87-3.43,15.1-4.12,3.62-.47,7.26-.89,10.81-1.69,3.28-.75,4.6-2.52,4.64-5.19.04-2.62-1.58-4.91-4.51-5.78-7.26-2.15-13.69-.49-19.29,4.56-.76.69-1.56,1.34-2.45,2.11-2.65-2.25-5.5-4.67-8.48-7.2ZM416.1,112.6c-2.37.73-4.65,1.53-6.98,2.1-1.63.39-3.34.47-5.01.66-3.55.41-7.09.84-10.27,2.64-1.98,1.13-3.32,2.71-3.34,5.15-.01,2.52,1.04,4.45,3.22,5.68.88.5,1.87.91,2.86,1.11,4.13.83,8.23.63,12.18-.86,4.57-1.73,7.09-5.09,7.32-10.01.1-2.24.02-4.5.02-6.48Z"/>
  <path class="cls-1" d="M140.58,91.42c5.41-7.59,12.68-11.51,21.73-12.09,5.96-.39,11.83.15,17.24,2.98,6.16,3.22,9.46,8.4,9.53,15.29.14,14.5.04,29,.04,43.5,0,.18-.03.37-.05.66h-10.88v-6.18c-.25.04-.42.02-.49.09-4.28,4.47-9.77,6.13-15.7,6.64-5.87.51-11.63.12-16.98-2.72-9.6-5.12-12.35-18.28-5.56-26.6,2.68-3.29,6.32-5.07,10.26-6.34,4.99-1.62,10.21-1.91,15.36-2.59,2.39-.32,4.8-.88,7.07-1.68,3.98-1.4,3.91-6.64,1.22-8.94-1.84-1.57-4.05-2.12-6.37-2.29-6.88-.5-12.59,1.87-17.12,7.07-.15.18-.28.37-.52.69-2.97-2.53-5.84-4.97-8.79-7.48ZM175.24,112.07c-2.42,1.8-5.02,2.37-7.67,2.74-2.18.3-4.37.52-6.55.83-3.12.44-6.2,1.05-8.84,2.93-2.14,1.52-2.91,3.74-2.3,6.3.64,2.67,2.51,4.15,4.98,4.83,4.46,1.23,8.92.97,13.24-.68,4.28-1.63,6.78-4.78,7.11-9.39.17-2.42.03-4.86.03-7.55Z"/>
  <path class="cls-1" d="M620.89,98.78c-2.86-2.43-5.7-4.85-8.63-7.34,1.74-2.6,3.84-4.76,6.28-6.61,4.39-3.33,9.4-5.05,14.84-5.46,5.71-.43,11.36-.05,16.68,2.38,6.78,3.1,10.58,8.37,10.66,15.84.15,14.5.04,29.01.04,43.51,0,.18-.04.37-.07.66h-10.9v-6.41c-1.11.95-1.97,1.77-2.92,2.48-3.89,2.9-8.41,4.08-13.14,4.47-5.72.48-11.36.19-16.61-2.51-6.4-3.29-9.68-8.54-9.65-15.74.03-7.3,3.28-12.65,9.93-15.83,5.26-2.52,10.92-3.24,16.62-3.87,2.83-.31,5.67-.75,8.44-1.44,3.06-.76,4.35-2.4,4.43-4.9.1-2.78-1.22-4.94-4.08-5.9-6.75-2.26-12.95-.96-18.5,3.43-1.17.92-2.18,2.05-3.42,3.24ZM646.78,112.48c-1.56.6-2.99,1.36-4.51,1.7-2.42.54-4.89.85-7.35,1.17-3.26.42-6.52.79-9.52,2.26-1.86.91-3.43,2.13-3.92,4.31-.78,3.49,1.17,6.7,5.02,7.76,4.85,1.34,9.68,1,14.28-1.11,3.37-1.55,5.55-4.26,5.95-7.97.29-2.71.06-5.49.06-8.11Z"/>
  <path class="cls-1" d="M129.92,127.43v13.34h-44.15V58.34h14.65v69.09h29.49Z"/>
  <path class="cls-1" d="M465.26,141.94c-1.87.17-3.76.4-5.66.49-4.11.19-8.15-.15-11.93-1.99-4.89-2.38-7.33-6.53-8.35-11.65-.37-1.83-.58-3.72-.59-5.58-.04-21.21-.03-42.42-.03-63.63v-1.22h14.2v22.72h13.07v12.86h-12.95c-.04.68-.09,1.18-.09,1.68,0,8.4-.02,16.8.01,25.2,0,1.3.14,2.63.41,3.9.62,2.89,2.43,4.52,5.36,4.72,2.14.15,4.29.03,6.55.03v12.48Z"/>
  <path class="cls-1" d="M353.94,81.21v8.48c.75-1.12,1.27-2,1.89-2.8,3.18-4.1,7.53-6.12,12.55-6.7,2.17-.25,4.4-.09,6.59-.02.34.01.94.54.95.83.06,4.26.04,8.53.04,12.92-1.46-.15-2.79-.34-4.12-.42-5.26-.3-10.11.67-13.9,4.7-2.9,3.08-3.95,6.88-3.97,10.98-.05,9.95-.02,19.9-.02,29.86,0,.55,0,1.1,0,1.73h-14.08v-59.55h14.06Z"/>
  <path class="cls-1" d="M543.5,81.23h14v8.5c5.15-8.72,12.94-10.43,21.96-9.52v13.73c-1.31-.14-2.59-.33-3.87-.41-5.25-.33-10.12.57-13.96,4.54-2.78,2.88-4.02,6.44-4.05,10.36-.08,10.18-.05,20.37-.06,30.55,0,.56,0,1.11,0,1.77h-14.02v-59.52Z"/>
  <path class="cls-1" d="M60.79,134.08c-2.86,2.86-5.41,5.42-7.84,7.85-10.37-10.37-20.77-20.77-31.04-31.04,10.23-10.23,20.67-20.67,30.99-30.99,2.37,2.37,4.94,4.94,7.51,7.51-7.63,7.63-15.42,15.41-23.1,23.09,7.92,7.95,15.72,15.78,23.48,23.58Z"/>
  <path class="cls-1" d="M693.54,141.85c-2.43-2.43-5.01-5-7.69-7.69,7.72-7.71,15.51-15.5,23.28-23.26-7.81-7.81-15.59-15.59-23.28-23.27,2.76-2.74,5.34-5.31,7.81-7.77,10.24,10.24,20.65,20.65,30.93,30.93-10.26,10.26-20.66,20.66-31.06,31.06Z"/>
  <path class="cls-1" d="M587.18,81.21h14.04v59.52h-14.04v-59.52Z"/>
</svg>