<?xml version="1.0" encoding="UTF-8"?>
<svg id="Layer_1" xmlns="http://www.w3.org/2000/svg" viewBox="0 0 894 302">
  <defs>
    <style>
      .cls-1 {
        fill: #fff;
      }
    </style>
  </defs>
  <g id="texto_2">
    <path class="cls-1" d="M427.12,183.22c-9.01-26.72-7.54-52.7,5.4-77.9.45-.87.52-1.94.77-2.91,7.31-10.9,16.29-20.33,25.82-29.28,9.54-4.96,18.62-10.79,29.11-13.9,36.7-10.85,76.24,1.71,99.88,31.94,1.18,1.5,1.84,3.62,4.37,4.36,0-6.86-.29-13.52.06-20.15.72-13.68,8.86-20.66,22.55-19.76,8.63.57,14.65,5.47,15.94,14.15,1.2,8.06,1.5,16.25,2.11,24.39,2,26.46,19.55,47.11,45.42,53.37-.6,17.34,4.11,33.15,12.56,48.26,3.91,6.98,10.71,11.79,13.4,19.47-.45,4.87.14,9.77-1.09,14.63-2.48,9.8-8.97,14.82-19.67,14.76-10.04-.05-16.9-5.26-18.9-14.9-2.06-9.9-.61-19.98-.94-29.97-.18-5.51,1.47-11.76-.62-16.35-2.27-4.98-9.64-3.99-14.66-5.91-14.95-5.73-27.19-14.78-36.69-27.62-.82-1.12-1.72-2.17-2.57-3.24-2.07,1.03-1.07,2.63-1.06,3.9.17,23.72.51,47.43.57,71.15.04,13.93-7.84,22.67-20.14,22.94-12.45.27-20.2-6.41-20.95-18.96-.72-12.03-.78-24.11-.99-36.17-.25-14.31-.17-28.63-.53-42.93-.9-35.95-36.92-59.64-70.55-46.53-4.81,1.67-9.35,3.9-13.29,7.14-8.58,7.06-15.78,15.07-17.27,26.74-4.04,7.92-2.81,16.31-2.24,24.65-.26,2.66-.99,4.98-2.7,7.26-8.31,11.12-20.07,15.4-33.1,17.38Z"/>
    <path class="cls-1" d="M148.82,183.14c-8.43-26.76-7.11-52.79,5.73-77.99.45-.88.54-1.94.8-2.91,7.8-10.65,16.06-20.89,26.41-29.23,12.06-7.4,24.56-13.59,38.7-16.21,38.71-7.16,79.24,12.15,97.71,46.87.37.7.94,1.3,1.41,1.94.31,3.22.87,6.45.88,9.67.05,23.06-.54,46.14.12,69.18.53,18.39-3.03,37.12,3.7,55.11-13.39,9.53-27.56,6.08-33.44-8.13-.49-4.09-.99-8.2-1.49-12.31-.18-17.05-.37-34.1-.55-51.14,1.56-8.11.26-16.28.57-24.42.04-1.14.21-2.5-1.52-2.73-4.59-33.09-37.83-52.58-69.86-40.97-1.67.71-3.38,1.34-5.01,2.14-12.55,6.15-21.38,15.51-25.1,29.26-5.76,8.48-2.82,17.97-3.11,27.08-.41,2.61-.62,5.28-2.38,7.47-8.65,10.72-19.88,16.42-33.58,17.31Z"/>
    <path class="cls-1" d="M181.76,73.02c-10.36,8.34-18.62,18.57-26.41,29.23-22.25-.37-44.5-.72-66.76-1.1-9.04-.15-9.56.29-9.5,9.7.21,36.99.5,73.98.67,110.97.03,5.3-.24,10.59-3.45,15.24-4.18,6.05-13.12,9.29-20.52,7.25-7.38-2.03-13.16-8.74-13.6-16.23-.28-4.69-.15-9.4-.14-14.1.12-39.25.42-78.5.3-117.75-.06-21.34,13.43-33.95,33.63-35.21,19.74-1.24,39.69-1.24,59.42.12,15.92,1.1,31.98,3.77,46.36,11.88Z"/>
    <path class="cls-1" d="M324.29,239.59c-6.73-17.99-3.17-36.72-3.7-55.11-.67-23.04-.07-46.12-.12-69.18,0-3.22-.57-6.45-.88-9.67,3.37-1.01,1.55-3.77,1.73-5.68.57-6.26-.83-12.68,1.74-18.78,5.68-13.51,17.1-19.43,30.45-20.12,19.77-1.03,39.69-1.07,59.45.05,14.99.85,29.86,4.07,43.83,10.17.88.38,1.55,1.23,2.32,1.86-9.53,8.95-18.51,18.38-25.82,29.28-22.83-2.14-45.73-.7-68.59-1.29-4.91-.13-6.27,1.7-6.25,6.43.21,36.8-.92,73.64.63,110.38,1.06,25.12-16.87,33.14-34.79,21.66Z"/>
    <path class="cls-1" d="M704.51,215.26c-2.69-7.68-9.49-12.49-13.4-19.47-8.45-15.11-13.16-30.92-12.56-48.26,1.3-40.85,21.83-68.74,58.04-85.94,2.58-1.23,5.42-3.03,8.67-1.72-.4,3.9-3.59,6.54-4.27,10.55-1.35,7.89-.57,15.77-1.05,23.63-.28,4.55-.26,9.19-2.68,13.31-5.7,4.93-9.9,11.04-13.35,17.63-.89,1.71-3.61,3.8-.43,6-6.92,9.78-4.71,20.61-2.89,31.06.8,4.59.7,10.41,6.07,13.24,2.57,9.92,10.5,15.11,18.34,20.09,11.16,7.09,23.9,9.05,36.79,9.8,7.12.41,14.29-.16,21.44-.02,12.58.26,19.66,7.59,19.6,20.03-.07,13.62-5.91,20.02-19.62,20.65-29.01,1.32-56.99-2.35-82.05-18.53-5.75-3.71-11.11-8.03-16.65-12.07Z"/>
    <path class="cls-1" d="M767.99,55.5c7.54-2.45,15.11-.58,22.28,1.03,34.2,7.68,57.16,28.56,69.72,61.15,3.65,9.47,4.92,19.41,5.16,29.38.57,23.89.58,47.8.85,71.69.04,3.3-.61,6.4-1.46,9.61-2.02,7.57-6.1,12.7-14.07,14.33-8.6,1.76-16.12.68-21.89-6.82-3.42-4.45-4.22-9.69-4.21-14.79.09-26.76.39-53.53-1.53-80.23-1.67-23.18-18.59-39.59-41.29-44.58-1.06-.23-2.32.43-3.5.67.26-2.21.62-4.42.76-6.64.81-12.97,3.1-26.42-10.83-34.8Z"/>
    <path class="cls-1" d="M148.82,183.14c13.71-.89,24.93-6.59,33.58-17.31,1.76-2.19,1.98-4.85,2.38-7.47,1.93.05,2.23-1.55,2.55-2.81,2.08-8.04,3-16.12.56-24.27,3.71-13.75,12.55-23.1,25.1-29.26,1.63-.8,3.34-1.43,5.01-2.14.45,1.55.65,3.23,1.39,4.62,5.23,9.81,8.1,20.14,9.65,31.26,3.09,22.17-.48,42.12-15.44,59.38-.61.7-.7,1.84-1.03,2.78-1.65-.05-3.16.13-4.51,1.35-8.55,7.73-18.56,12.96-29.28,16.96-1.8.67-4.11,1.01-4.3,3.68-12.9,3.02-25.85,6.07-39.08,6.86-12.73.76-25.69,3.05-38.19-1.55-8.55-3.14-13.75-11.87-12.94-20.79.93-10.22,6.42-17.13,16.31-18.66,15.96-2.47,32.19-1.26,48.25-2.62Z"/>
    <path class="cls-1" d="M465.16,133.93c1.5-11.67,8.69-19.68,17.27-26.74,3.94-3.24,8.48-5.48,13.29-7.14-.08,1.71.83,3,1.53,4.49,12.66,26.9,16.23,53.95,1.15,81.3-2.33,4.23-6.53,7.25-7.72,12.18-2.49-.59-4.12.78-5.93,2.26-8.24,6.75-17.15,12.35-27.47,15.47-2.07.63-4.45,1.33-4.51,4.27-12.76,2.54-25.44,5.81-38.44,6.66-12.93.84-26.08,3.23-38.76-1.45-9.51-3.51-14.04-11.43-13.17-21.63.79-9.35,6.55-15.68,16.48-17.88,2.57-.57,5.24-1,7.86-.97,13.48.15,26.92-.77,40.37-1.54,13.03-1.97,24.79-6.26,33.1-17.38,1.71-2.28,2.44-4.6,2.7-7.26,4.13-4.33,5.38-18.03,2.24-24.65Z"/>
    <path class="cls-1" d="M767.99,55.5c13.93,8.39,11.64,21.84,10.83,34.8-.14,2.22-.5,4.43-.76,6.64-2.73,17.06-7.56,33.39-17.02,48.07-8.59,13.34-19.66,23.89-34.38,30.29-5.37-2.84-5.27-8.65-6.07-13.24-1.82-10.45-4.03-21.29,2.89-31.05,7.06-6.44,12.25-13.97,13.77-23.65,2.42-4.13,2.41-8.76,2.68-13.31.48-7.86-.31-15.73,1.05-23.63.69-4.02,3.87-6.65,4.27-10.55,0,0,.24-.16.23-.16.28,0,.5-.13.64-.38,6.78-4.15,14.14-4.98,21.85-3.84Z"/>
    <path class="cls-1" d="M452.78,220.03c.06-2.94,2.43-3.64,4.51-4.27,10.32-3.12,19.23-8.72,27.47-15.47,1.81-1.48,3.43-2.85,5.93-2.26,15.09,7.49,31.27,8.55,47.71,8.04,2.85-.09,5.72-.37,8.55-.14,11.1.9,19.3,8.67,19.48,18.26.26,13.96-5.54,22.28-18.05,23.02-30.45,1.81-59.88-1.84-85.89-19.75-3.35-2.31-6.48-4.94-9.71-7.42Z"/>
    <path class="cls-1" d="M174.48,219.91c.19-2.67,2.5-3.01,4.3-3.68,10.73-4,20.73-9.23,29.28-16.96,1.35-1.22,2.86-1.4,4.51-1.35,3.01,1.25,5.96,2.69,9.04,3.71,14.01,4.65,28.45,5.06,43.02,4.32,11.45-.58,18.94,3.89,22.9,13.49.32,4.27,1.32,8.51.69,12.83-2.13,9.6-9,14.42-17.92,14.93-30.3,1.72-59.6-1.83-85.52-19.61-3.53-2.42-6.87-5.12-10.3-7.69Z"/>
    <path class="cls-1" d="M746.14,59.34c-.15.25-.36.37-.64.38-.27-.94-.08-1.1.64-.38Z"/>
  </g>
</svg>